<mxfile host="app.diagrams.net" modified="2024-07-07T12:03:18.288Z" agent="Mozilla/5.0 (X11; Linux x86_64) AppleWebKit/537.36 (KHTML, like Gecko) Chrome/125.0.0.0 Safari/537.36" etag="O42-TnOW9Jss-t8wJFN3" version="24.6.4" type="device">
  <diagram name="Page-1" id="aea2eVyua5f_ueuhamic">
    <mxGraphModel dx="2047" dy="1133" grid="1" gridSize="10" guides="1" tooltips="1" connect="1" arrows="1" fold="1" page="1" pageScale="1" pageWidth="850" pageHeight="1100" math="0" shadow="0">
      <root>
        <mxCell id="0" />
        <mxCell id="1" parent="0" />
        <mxCell id="OIH57Cj0RyYtuAbzgee4-18" value="" style="swimlane;startSize=0;" parent="1" vertex="1">
          <mxGeometry x="80" y="60" width="650" height="420" as="geometry" />
        </mxCell>
        <mxCell id="OIH57Cj0RyYtuAbzgee4-5" value="" style="group" parent="OIH57Cj0RyYtuAbzgee4-18" vertex="1" connectable="0">
          <mxGeometry width="150" height="150" as="geometry" />
        </mxCell>
        <mxCell id="OIH57Cj0RyYtuAbzgee4-3" value="" style="sketch=0;points=[[0,0,0],[0.25,0,0],[0.5,0,0],[0.75,0,0],[1,0,0],[0,1,0],[0.25,1,0],[0.5,1,0],[0.75,1,0],[1,1,0],[0,0.25,0],[0,0.5,0],[0,0.75,0],[1,0.25,0],[1,0.5,0],[1,0.75,0]];outlineConnect=0;fontColor=#232F3E;fillColor=#8C4FFF;strokeColor=#ffffff;dashed=0;verticalLabelPosition=bottom;verticalAlign=top;align=center;html=1;fontSize=12;fontStyle=0;aspect=fixed;shape=mxgraph.aws4.resourceIcon;resIcon=mxgraph.aws4.cloudfront;" parent="OIH57Cj0RyYtuAbzgee4-5" vertex="1">
          <mxGeometry x="26" width="98" height="98" as="geometry" />
        </mxCell>
        <mxCell id="OIH57Cj0RyYtuAbzgee4-4" value="&lt;font style=&quot;font-size: 14px;&quot; data-font-src=&quot;https://fonts.googleapis.com/css?family=Ubuntu&quot;&gt;Cloudfront Instance 1&lt;/font&gt;&lt;div&gt;&lt;font style=&quot;font-size: 10px;&quot;&gt;(*.battleshiper.dev)&lt;/font&gt;&lt;/div&gt;" style="text;html=1;align=center;verticalAlign=middle;whiteSpace=wrap;rounded=0;fontFamily=Ubuntu;fontSource=https%3A%2F%2Ffonts.googleapis.com%2Fcss%3Ffamily%3DUbuntu;" parent="OIH57Cj0RyYtuAbzgee4-5" vertex="1">
          <mxGeometry y="110" width="150" height="40" as="geometry" />
        </mxCell>
        <mxCell id="OIH57Cj0RyYtuAbzgee4-29" style="edgeStyle=orthogonalEdgeStyle;rounded=0;orthogonalLoop=1;jettySize=auto;html=1;entryX=0.5;entryY=0;entryDx=0;entryDy=0;exitX=1;exitY=0.5;exitDx=0;exitDy=0;" parent="OIH57Cj0RyYtuAbzgee4-18" source="OIH57Cj0RyYtuAbzgee4-15" target="OIH57Cj0RyYtuAbzgee4-16" edge="1">
          <mxGeometry relative="1" as="geometry">
            <Array as="points">
              <mxPoint x="390" y="49" />
              <mxPoint x="390" y="30" />
              <mxPoint x="515" y="30" />
            </Array>
          </mxGeometry>
        </mxCell>
        <mxCell id="OIH57Cj0RyYtuAbzgee4-15" value="" style="swimlane;startSize=0;" parent="OIH57Cj0RyYtuAbzgee4-18" vertex="1">
          <mxGeometry x="170" y="24" width="190" height="50" as="geometry" />
        </mxCell>
        <mxCell id="OIH57Cj0RyYtuAbzgee4-9" value="&lt;span style=&quot;font-size: 14px;&quot;&gt;Viewer Request&lt;/span&gt;&lt;br&gt;&lt;font style=&quot;font-size: 8px;&quot;&gt;(cache key is generated)&lt;/font&gt;" style="text;html=1;align=center;verticalAlign=middle;whiteSpace=wrap;rounded=0;fontFamily=Ubuntu;fontSource=https%3A%2F%2Ffonts.googleapis.com%2Fcss%3Ffamily%3DUbuntu;" parent="OIH57Cj0RyYtuAbzgee4-15" vertex="1">
          <mxGeometry x="20" y="5" width="150" height="40" as="geometry" />
        </mxCell>
        <mxCell id="OIH57Cj0RyYtuAbzgee4-21" value="" style="group" parent="OIH57Cj0RyYtuAbzgee4-18" vertex="1" connectable="0">
          <mxGeometry x="380" y="50" width="240" height="190" as="geometry" />
        </mxCell>
        <mxCell id="OIH57Cj0RyYtuAbzgee4-20" value="" style="group" parent="OIH57Cj0RyYtuAbzgee4-21" vertex="1" connectable="0">
          <mxGeometry x="31.11111111111111" width="208.88888888888889" height="190" as="geometry" />
        </mxCell>
        <mxCell id="OIH57Cj0RyYtuAbzgee4-16" value="" style="swimlane;startSize=0;" parent="OIH57Cj0RyYtuAbzgee4-20" vertex="1">
          <mxGeometry width="208.88888888888889" height="190" as="geometry" />
        </mxCell>
        <mxCell id="OIH57Cj0RyYtuAbzgee4-8" value="&lt;span style=&quot;font-size: 14px;&quot;&gt;Origin Request&lt;/span&gt;" style="text;html=1;align=center;verticalAlign=middle;whiteSpace=wrap;rounded=0;fontFamily=Ubuntu;fontSource=https%3A%2F%2Ffonts.googleapis.com%2Fcss%3Ffamily%3DUbuntu;" parent="OIH57Cj0RyYtuAbzgee4-16" vertex="1">
          <mxGeometry x="37.782222222222224" y="5" width="133.33333333333331" height="40" as="geometry" />
        </mxCell>
        <mxCell id="OIH57Cj0RyYtuAbzgee4-1" value="" style="sketch=0;points=[[0,0,0],[0.25,0,0],[0.5,0,0],[0.75,0,0],[1,0,0],[0,1,0],[0.25,1,0],[0.5,1,0],[0.75,1,0],[1,1,0],[0,0.25,0],[0,0.5,0],[0,0.75,0],[1,0.25,0],[1,0.5,0],[1,0.75,0]];outlineConnect=0;fontColor=#232F3E;fillColor=#ED7100;strokeColor=#ffffff;dashed=0;verticalLabelPosition=bottom;verticalAlign=top;align=center;html=1;fontSize=12;fontStyle=0;aspect=fixed;shape=mxgraph.aws4.resourceIcon;resIcon=mxgraph.aws4.lambda;" parent="OIH57Cj0RyYtuAbzgee4-16" vertex="1">
          <mxGeometry x="74.22666666666666" y="45" width="60.44444444444444" height="60.44444444444444" as="geometry" />
        </mxCell>
        <mxCell id="OIH57Cj0RyYtuAbzgee4-6" value="&lt;span style=&quot;font-size: 14px;&quot;&gt;lambda@edge&lt;/span&gt;&lt;br&gt;&lt;span style=&quot;font-size: 14px;&quot;&gt;rewrites to project path&lt;/span&gt;&lt;br&gt;&lt;font style=&quot;font-size: 9px;&quot;&gt;salat.battleshiper.dev/_app&amp;nbsp;&lt;/font&gt;&lt;div&gt;&lt;font style=&quot;font-size: 9px;&quot;&gt;-&amp;gt; salat.battleshiper.dev/salat/_app&lt;/font&gt;&lt;/div&gt;" style="text;html=1;align=center;verticalAlign=middle;whiteSpace=wrap;rounded=0;fontFamily=Ubuntu;fontSource=https%3A%2F%2Ffonts.googleapis.com%2Fcss%3Ffamily%3DUbuntu;" parent="OIH57Cj0RyYtuAbzgee4-16" vertex="1">
          <mxGeometry x="-15.55111111111111" y="130" width="240" height="40" as="geometry" />
        </mxCell>
        <mxCell id="OIH57Cj0RyYtuAbzgee4-32" style="edgeStyle=orthogonalEdgeStyle;rounded=0;orthogonalLoop=1;jettySize=auto;html=1;entryX=0.5;entryY=1;entryDx=0;entryDy=0;" parent="OIH57Cj0RyYtuAbzgee4-18" source="OIH57Cj0RyYtuAbzgee4-22" target="OIH57Cj0RyYtuAbzgee4-24" edge="1">
          <mxGeometry relative="1" as="geometry" />
        </mxCell>
        <mxCell id="OIH57Cj0RyYtuAbzgee4-22" value="" style="swimlane;startSize=0;" parent="OIH57Cj0RyYtuAbzgee4-18" vertex="1">
          <mxGeometry x="129.88" y="350" width="190" height="50" as="geometry" />
        </mxCell>
        <mxCell id="OIH57Cj0RyYtuAbzgee4-23" value="&lt;span style=&quot;font-size: 14px;&quot;&gt;Origin Response&lt;/span&gt;" style="text;html=1;align=center;verticalAlign=middle;whiteSpace=wrap;rounded=0;fontFamily=Ubuntu;fontSource=https%3A%2F%2Ffonts.googleapis.com%2Fcss%3Ffamily%3DUbuntu;" parent="OIH57Cj0RyYtuAbzgee4-22" vertex="1">
          <mxGeometry x="20" y="5" width="150" height="40" as="geometry" />
        </mxCell>
        <mxCell id="OIH57Cj0RyYtuAbzgee4-31" style="edgeStyle=orthogonalEdgeStyle;rounded=0;orthogonalLoop=1;jettySize=auto;html=1;entryX=0.5;entryY=1;entryDx=0;entryDy=0;" parent="OIH57Cj0RyYtuAbzgee4-18" source="OIH57Cj0RyYtuAbzgee4-24" target="OIH57Cj0RyYtuAbzgee4-4" edge="1">
          <mxGeometry relative="1" as="geometry" />
        </mxCell>
        <mxCell id="OIH57Cj0RyYtuAbzgee4-24" value="" style="swimlane;startSize=0;" parent="OIH57Cj0RyYtuAbzgee4-18" vertex="1">
          <mxGeometry x="129.88" y="190" width="190" height="50" as="geometry" />
        </mxCell>
        <mxCell id="OIH57Cj0RyYtuAbzgee4-25" value="&lt;span style=&quot;font-size: 14px;&quot;&gt;Viewer Response&lt;/span&gt;&lt;br&gt;&lt;font style=&quot;font-size: 8px;&quot;&gt;(content is cached)&lt;/font&gt;" style="text;html=1;align=center;verticalAlign=middle;whiteSpace=wrap;rounded=0;fontFamily=Ubuntu;fontSource=https%3A%2F%2Ffonts.googleapis.com%2Fcss%3Ffamily%3DUbuntu;" parent="OIH57Cj0RyYtuAbzgee4-24" vertex="1">
          <mxGeometry x="20" y="5" width="150" height="40" as="geometry" />
        </mxCell>
        <mxCell id="OIH57Cj0RyYtuAbzgee4-28" style="edgeStyle=orthogonalEdgeStyle;rounded=0;orthogonalLoop=1;jettySize=auto;html=1;entryX=0;entryY=0.5;entryDx=0;entryDy=0;" parent="OIH57Cj0RyYtuAbzgee4-18" source="OIH57Cj0RyYtuAbzgee4-3" target="OIH57Cj0RyYtuAbzgee4-15" edge="1">
          <mxGeometry relative="1" as="geometry" />
        </mxCell>
        <mxCell id="OIH57Cj0RyYtuAbzgee4-33" value="" style="swimlane;startSize=0;" parent="OIH57Cj0RyYtuAbzgee4-18" vertex="1">
          <mxGeometry x="390" y="270" width="230" height="130" as="geometry" />
        </mxCell>
        <mxCell id="OIH57Cj0RyYtuAbzgee4-34" value="&lt;span style=&quot;font-size: 14px;&quot;&gt;Cache Behavior&lt;/span&gt;" style="text;html=1;align=center;verticalAlign=middle;whiteSpace=wrap;rounded=0;fontFamily=Ubuntu;fontSource=https%3A%2F%2Ffonts.googleapis.com%2Fcss%3Ffamily%3DUbuntu;" parent="OIH57Cj0RyYtuAbzgee4-33" vertex="1">
          <mxGeometry x="50" width="150" height="40" as="geometry" />
        </mxCell>
        <mxCell id="OIH57Cj0RyYtuAbzgee4-51" value="&lt;font style=&quot;font-size: 8px;&quot;&gt;no cache&lt;/font&gt;" style="text;html=1;align=center;verticalAlign=middle;whiteSpace=wrap;rounded=0;fontFamily=Ubuntu;fontSource=https%3A%2F%2Ffonts.googleapis.com%2Fcss%3Ffamily%3DUbuntu;fontSize=15;" parent="OIH57Cj0RyYtuAbzgee4-33" vertex="1">
          <mxGeometry x="161" y="100" width="62.22" height="20" as="geometry" />
        </mxCell>
        <mxCell id="OIH57Cj0RyYtuAbzgee4-55" value="" style="group" parent="OIH57Cj0RyYtuAbzgee4-33" vertex="1" connectable="0">
          <mxGeometry x="10" y="40" width="80" height="80" as="geometry" />
        </mxCell>
        <mxCell id="OIH57Cj0RyYtuAbzgee4-39" value="" style="group" parent="OIH57Cj0RyYtuAbzgee4-55" vertex="1" connectable="0">
          <mxGeometry width="80" height="50" as="geometry" />
        </mxCell>
        <mxCell id="OIH57Cj0RyYtuAbzgee4-36" value="" style="swimlane;startSize=0;" parent="OIH57Cj0RyYtuAbzgee4-39" vertex="1">
          <mxGeometry width="70" height="50" as="geometry" />
        </mxCell>
        <mxCell id="OIH57Cj0RyYtuAbzgee4-38" value="&lt;font style=&quot;font-size: 15px;&quot;&gt;/_app/*&lt;/font&gt;" style="text;html=1;align=center;verticalAlign=middle;whiteSpace=wrap;rounded=0;fontFamily=Ubuntu;fontSource=https%3A%2F%2Ffonts.googleapis.com%2Fcss%3Ffamily%3DUbuntu;fontSize=15;" parent="OIH57Cj0RyYtuAbzgee4-36" vertex="1">
          <mxGeometry x="3.8888888888888893" y="4" width="62.22222222222222" height="40" as="geometry" />
        </mxCell>
        <mxCell id="OIH57Cj0RyYtuAbzgee4-50" value="&lt;font style=&quot;font-size: 8px;&quot;&gt;cache content&lt;/font&gt;" style="text;html=1;align=center;verticalAlign=middle;whiteSpace=wrap;rounded=0;fontFamily=Ubuntu;fontSource=https%3A%2F%2Ffonts.googleapis.com%2Fcss%3Ffamily%3DUbuntu;fontSize=15;" parent="OIH57Cj0RyYtuAbzgee4-55" vertex="1">
          <mxGeometry x="8.89" y="60" width="62.22" height="20" as="geometry" />
        </mxCell>
        <mxCell id="-ez2lOt0YhEfZBIx9Kx3-2" value="" style="swimlane;startSize=0;" vertex="1" parent="OIH57Cj0RyYtuAbzgee4-33">
          <mxGeometry x="90" y="40" width="60" height="50" as="geometry" />
        </mxCell>
        <mxCell id="-ez2lOt0YhEfZBIx9Kx3-3" value="&lt;font style=&quot;font-size: 15px;&quot;&gt;/*.*&lt;/font&gt;" style="text;html=1;align=center;verticalAlign=middle;whiteSpace=wrap;rounded=0;fontFamily=Ubuntu;fontSource=https%3A%2F%2Ffonts.googleapis.com%2Fcss%3Ffamily%3DUbuntu;fontSize=15;" vertex="1" parent="-ez2lOt0YhEfZBIx9Kx3-2">
          <mxGeometry x="6.95" y="4" width="46.11" height="40" as="geometry" />
        </mxCell>
        <mxCell id="-ez2lOt0YhEfZBIx9Kx3-4" value="&lt;font style=&quot;font-size: 8px;&quot;&gt;cache content&lt;/font&gt;" style="text;html=1;align=center;verticalAlign=middle;whiteSpace=wrap;rounded=0;fontFamily=Ubuntu;fontSource=https%3A%2F%2Ffonts.googleapis.com%2Fcss%3Ffamily%3DUbuntu;fontSize=15;" vertex="1" parent="OIH57Cj0RyYtuAbzgee4-33">
          <mxGeometry x="88.88999999999999" y="100" width="62.22" height="20" as="geometry" />
        </mxCell>
        <mxCell id="OIH57Cj0RyYtuAbzgee4-35" style="edgeStyle=orthogonalEdgeStyle;rounded=0;orthogonalLoop=1;jettySize=auto;html=1;entryX=0.5;entryY=0;entryDx=0;entryDy=0;" parent="OIH57Cj0RyYtuAbzgee4-18" target="OIH57Cj0RyYtuAbzgee4-34" edge="1">
          <mxGeometry relative="1" as="geometry">
            <mxPoint x="510" y="240" as="sourcePoint" />
          </mxGeometry>
        </mxCell>
        <mxCell id="OIH57Cj0RyYtuAbzgee4-46" value="" style="group" parent="1" vertex="1" connectable="0">
          <mxGeometry x="630" y="370" width="60" height="50" as="geometry" />
        </mxCell>
        <mxCell id="OIH57Cj0RyYtuAbzgee4-47" value="" style="swimlane;startSize=0;" parent="OIH57Cj0RyYtuAbzgee4-46" vertex="1">
          <mxGeometry width="60" height="50" as="geometry" />
        </mxCell>
        <mxCell id="OIH57Cj0RyYtuAbzgee4-48" value="&lt;font style=&quot;font-size: 15px;&quot;&gt;/*&lt;/font&gt;" style="text;html=1;align=center;verticalAlign=middle;whiteSpace=wrap;rounded=0;fontFamily=Ubuntu;fontSource=https%3A%2F%2Ffonts.googleapis.com%2Fcss%3Ffamily%3DUbuntu;fontSize=15;" parent="OIH57Cj0RyYtuAbzgee4-46" vertex="1">
          <mxGeometry x="6.666666666666667" y="5" width="46.666666666666664" height="40" as="geometry" />
        </mxCell>
        <mxCell id="OIH57Cj0RyYtuAbzgee4-54" style="edgeStyle=orthogonalEdgeStyle;rounded=0;orthogonalLoop=1;jettySize=auto;html=1;entryX=0.5;entryY=0;entryDx=0;entryDy=0;entryPerimeter=0;" parent="1" source="OIH57Cj0RyYtuAbzgee4-51" target="OIH57Cj0RyYtuAbzgee4-2" edge="1">
          <mxGeometry relative="1" as="geometry" />
        </mxCell>
        <mxCell id="Ziek2v9Pr0dAA3M8hF_b-2" style="edgeStyle=orthogonalEdgeStyle;rounded=0;orthogonalLoop=1;jettySize=auto;html=1;entryX=0.5;entryY=1;entryDx=0;entryDy=0;exitX=0.5;exitY=1;exitDx=0;exitDy=0;" parent="1" source="OIH57Cj0RyYtuAbzgee4-57" target="OIH57Cj0RyYtuAbzgee4-22" edge="1">
          <mxGeometry relative="1" as="geometry">
            <Array as="points">
              <mxPoint x="805" y="900" />
              <mxPoint x="200" y="900" />
              <mxPoint x="200" y="500" />
              <mxPoint x="345" y="500" />
            </Array>
          </mxGeometry>
        </mxCell>
        <mxCell id="OIH57Cj0RyYtuAbzgee4-57" value="" style="swimlane;startSize=0;" parent="1" vertex="1">
          <mxGeometry x="620" y="530" width="780" height="350" as="geometry" />
        </mxCell>
        <mxCell id="OIH57Cj0RyYtuAbzgee4-73" style="edgeStyle=orthogonalEdgeStyle;rounded=0;orthogonalLoop=1;jettySize=auto;html=1;entryX=0;entryY=0.5;entryDx=0;entryDy=0;exitX=0.5;exitY=1;exitDx=0;exitDy=0;" parent="OIH57Cj0RyYtuAbzgee4-57" source="OIH57Cj0RyYtuAbzgee4-58" target="OIH57Cj0RyYtuAbzgee4-64" edge="1">
          <mxGeometry relative="1" as="geometry">
            <Array as="points">
              <mxPoint x="50" y="260" />
              <mxPoint x="340" y="260" />
              <mxPoint x="340" y="265" />
            </Array>
          </mxGeometry>
        </mxCell>
        <mxCell id="OIH57Cj0RyYtuAbzgee4-74" style="edgeStyle=orthogonalEdgeStyle;rounded=0;orthogonalLoop=1;jettySize=auto;html=1;entryX=0;entryY=0.5;entryDx=0;entryDy=0;exitX=0.5;exitY=1;exitDx=0;exitDy=0;" parent="OIH57Cj0RyYtuAbzgee4-57" source="OIH57Cj0RyYtuAbzgee4-58" target="OIH57Cj0RyYtuAbzgee4-62" edge="1">
          <mxGeometry relative="1" as="geometry">
            <Array as="points">
              <mxPoint x="50" y="260" />
              <mxPoint x="340" y="260" />
              <mxPoint x="340" y="165" />
            </Array>
          </mxGeometry>
        </mxCell>
        <mxCell id="OIH57Cj0RyYtuAbzgee4-58" value="&lt;span style=&quot;font-size: 14px;&quot;&gt;API Gateway&lt;/span&gt;" style="text;html=1;align=center;verticalAlign=middle;whiteSpace=wrap;rounded=0;fontFamily=Ubuntu;fontSource=https%3A%2F%2Ffonts.googleapis.com%2Fcss%3Ffamily%3DUbuntu;" parent="OIH57Cj0RyYtuAbzgee4-57" vertex="1">
          <mxGeometry x="-5" y="88" width="110" height="40" as="geometry" />
        </mxCell>
        <mxCell id="OIH57Cj0RyYtuAbzgee4-53" value="" style="sketch=0;points=[[0,0,0],[0.25,0,0],[0.5,0,0],[0.75,0,0],[1,0,0],[0,1,0],[0.25,1,0],[0.5,1,0],[0.75,1,0],[1,1,0],[0,0.25,0],[0,0.5,0],[0,0.75,0],[1,0.25,0],[1,0.5,0],[1,0.75,0]];outlineConnect=0;fontColor=#232F3E;fillColor=#ED7100;strokeColor=#ffffff;dashed=0;verticalLabelPosition=bottom;verticalAlign=top;align=center;html=1;fontSize=12;fontStyle=0;aspect=fixed;shape=mxgraph.aws4.resourceIcon;resIcon=mxgraph.aws4.lambda;" parent="OIH57Cj0RyYtuAbzgee4-57" vertex="1">
          <mxGeometry x="650" y="20" width="90.44" height="90.44" as="geometry" />
        </mxCell>
        <mxCell id="OIH57Cj0RyYtuAbzgee4-60" value="&lt;span style=&quot;font-size: 14px;&quot;&gt;/evilcorp/server&lt;/span&gt;" style="text;html=1;align=center;verticalAlign=middle;whiteSpace=wrap;rounded=0;fontFamily=Ubuntu;fontSource=https%3A%2F%2Ffonts.googleapis.com%2Fcss%3Ffamily%3DUbuntu;" parent="OIH57Cj0RyYtuAbzgee4-57" vertex="1">
          <mxGeometry x="520" y="45.22" width="120" height="40" as="geometry" />
        </mxCell>
        <mxCell id="OIH57Cj0RyYtuAbzgee4-61" value="" style="sketch=0;points=[[0,0,0],[0.25,0,0],[0.5,0,0],[0.75,0,0],[1,0,0],[0,1,0],[0.25,1,0],[0.5,1,0],[0.75,1,0],[1,1,0],[0,0.25,0],[0,0.5,0],[0,0.75,0],[1,0.25,0],[1,0.5,0],[1,0.75,0]];outlineConnect=0;fontColor=#232F3E;fillColor=#ED7100;strokeColor=#ffffff;dashed=0;verticalLabelPosition=bottom;verticalAlign=top;align=center;html=1;fontSize=12;fontStyle=0;aspect=fixed;shape=mxgraph.aws4.resourceIcon;resIcon=mxgraph.aws4.lambda;" parent="OIH57Cj0RyYtuAbzgee4-57" vertex="1">
          <mxGeometry x="650" y="120" width="90.44" height="90.44" as="geometry" />
        </mxCell>
        <mxCell id="OIH57Cj0RyYtuAbzgee4-62" value="&lt;span style=&quot;font-size: 14px;&quot;&gt;/phpveterans/server&lt;/span&gt;" style="text;html=1;align=center;verticalAlign=middle;whiteSpace=wrap;rounded=0;fontFamily=Ubuntu;fontSource=https%3A%2F%2Ffonts.googleapis.com%2Fcss%3Ffamily%3DUbuntu;" parent="OIH57Cj0RyYtuAbzgee4-57" vertex="1">
          <mxGeometry x="495" y="145.22" width="145" height="40" as="geometry" />
        </mxCell>
        <mxCell id="OIH57Cj0RyYtuAbzgee4-63" value="" style="sketch=0;points=[[0,0,0],[0.25,0,0],[0.5,0,0],[0.75,0,0],[1,0,0],[0,1,0],[0.25,1,0],[0.5,1,0],[0.75,1,0],[1,1,0],[0,0.25,0],[0,0.5,0],[0,0.75,0],[1,0.25,0],[1,0.5,0],[1,0.75,0]];outlineConnect=0;fontColor=#232F3E;fillColor=#ED7100;strokeColor=#ffffff;dashed=0;verticalLabelPosition=bottom;verticalAlign=top;align=center;html=1;fontSize=12;fontStyle=0;aspect=fixed;shape=mxgraph.aws4.resourceIcon;resIcon=mxgraph.aws4.lambda;" parent="OIH57Cj0RyYtuAbzgee4-57" vertex="1">
          <mxGeometry x="650" y="219.55999999999995" width="90.44" height="90.44" as="geometry" />
        </mxCell>
        <mxCell id="OIH57Cj0RyYtuAbzgee4-64" value="&lt;span style=&quot;font-size: 14px;&quot;&gt;/sellweed/server&lt;/span&gt;" style="text;html=1;align=center;verticalAlign=middle;whiteSpace=wrap;rounded=0;fontFamily=Ubuntu;fontSource=https%3A%2F%2Ffonts.googleapis.com%2Fcss%3Ffamily%3DUbuntu;" parent="OIH57Cj0RyYtuAbzgee4-57" vertex="1">
          <mxGeometry x="515" y="244.78" width="125" height="40" as="geometry" />
        </mxCell>
        <mxCell id="OIH57Cj0RyYtuAbzgee4-68" value="" style="shape=image;verticalLabelPosition=bottom;labelBackgroundColor=default;verticalAlign=top;aspect=fixed;imageAspect=0;image=https://kit.svelte.dev/_app/immutable/assets/svelte-kit-machine.D9RaRv8H.png;clipPath=inset(27.33% 15.67% 30.67% 25.33%);" parent="OIH57Cj0RyYtuAbzgee4-57" vertex="1">
          <mxGeometry x="690" y="70" width="70.24" height="50" as="geometry" />
        </mxCell>
        <mxCell id="OIH57Cj0RyYtuAbzgee4-70" value="" style="shape=image;verticalLabelPosition=bottom;labelBackgroundColor=default;verticalAlign=top;aspect=fixed;imageAspect=0;image=https://kit.svelte.dev/_app/immutable/assets/svelte-kit-machine.D9RaRv8H.png;clipPath=inset(27.33% 15.67% 30.67% 25.33%);rotation=-180;" parent="OIH57Cj0RyYtuAbzgee4-57" vertex="1">
          <mxGeometry x="690" y="169.55999999999995" width="70.24" height="50" as="geometry" />
        </mxCell>
        <mxCell id="OIH57Cj0RyYtuAbzgee4-71" value="" style="shape=image;verticalLabelPosition=bottom;labelBackgroundColor=default;verticalAlign=top;aspect=fixed;imageAspect=0;image=https://kit.svelte.dev/_app/immutable/assets/svelte-kit-machine.D9RaRv8H.png;clipPath=inset(27.33% 15.67% 30.67% 25.33%);" parent="OIH57Cj0RyYtuAbzgee4-57" vertex="1">
          <mxGeometry x="690" y="270" width="70.24" height="50" as="geometry" />
        </mxCell>
        <mxCell id="OIH57Cj0RyYtuAbzgee4-77" value="&lt;font style=&quot;font-size: 7px;&quot;&gt;(serving sveltekit server router interpreting API Gateway requests with custom adapter)&amp;nbsp;&lt;/font&gt;" style="text;html=1;align=center;verticalAlign=middle;whiteSpace=wrap;rounded=0;fontFamily=Ubuntu;fontSource=https%3A%2F%2Ffonts.googleapis.com%2Fcss%3Ffamily%3DUbuntu;" parent="OIH57Cj0RyYtuAbzgee4-57" vertex="1">
          <mxGeometry x="350" y="320" width="380.24" height="20" as="geometry" />
        </mxCell>
        <mxCell id="Ziek2v9Pr0dAA3M8hF_b-4" value="" style="edgeStyle=orthogonalEdgeStyle;rounded=0;orthogonalLoop=1;jettySize=auto;html=1;exitX=0.509;exitY=1.125;exitDx=0;exitDy=0;entryX=0;entryY=0.5;entryDx=0;entryDy=0;exitPerimeter=0;" parent="OIH57Cj0RyYtuAbzgee4-57" source="OIH57Cj0RyYtuAbzgee4-58" target="OIH57Cj0RyYtuAbzgee4-60" edge="1">
          <mxGeometry relative="1" as="geometry">
            <Array as="points">
              <mxPoint x="51" y="260" />
              <mxPoint x="340" y="260" />
              <mxPoint x="340" y="65" />
            </Array>
          </mxGeometry>
        </mxCell>
        <mxCell id="Ziek2v9Pr0dAA3M8hF_b-5" value="&lt;font style=&quot;&quot; data-font-src=&quot;https://fonts.googleapis.com/css?family=Ubuntu&quot; face=&quot;Ubuntu&quot;&gt;&lt;span style=&quot;font-weight: bold; font-size: 13px;&quot;&gt;&amp;nbsp; /&amp;lt;project&amp;gt;/*&amp;nbsp; &lt;/span&gt;&lt;font style=&quot;font-size: 13px;&quot;&gt;(server routed)&amp;nbsp;&amp;nbsp;&lt;/font&gt;&lt;/font&gt;" style="edgeLabel;html=1;align=center;verticalAlign=middle;resizable=0;points=[];" parent="Ziek2v9Pr0dAA3M8hF_b-4" vertex="1" connectable="0">
          <mxGeometry x="-0.406" relative="1" as="geometry">
            <mxPoint x="21" as="offset" />
          </mxGeometry>
        </mxCell>
        <mxCell id="OIH57Cj0RyYtuAbzgee4-2" value="" style="sketch=0;points=[[0,0,0],[0.25,0,0],[0.5,0,0],[0.75,0,0],[1,0,0],[0,1,0],[0.25,1,0],[0.5,1,0],[0.75,1,0],[1,1,0],[0,0.25,0],[0,0.5,0],[0,0.75,0],[1,0.25,0],[1,0.5,0],[1,0.75,0]];outlineConnect=0;fontColor=#232F3E;fillColor=#8C4FFF;strokeColor=#ffffff;dashed=0;verticalLabelPosition=bottom;verticalAlign=top;align=center;html=1;fontSize=12;fontStyle=0;aspect=fixed;shape=mxgraph.aws4.resourceIcon;resIcon=mxgraph.aws4.api_gateway;" parent="OIH57Cj0RyYtuAbzgee4-57" vertex="1">
          <mxGeometry x="11" y="10" width="78" height="78" as="geometry" />
        </mxCell>
        <mxCell id="Ziek2v9Pr0dAA3M8hF_b-1" style="edgeStyle=orthogonalEdgeStyle;rounded=0;orthogonalLoop=1;jettySize=auto;html=1;entryX=0.5;entryY=1;entryDx=0;entryDy=0;exitX=0.5;exitY=1;exitDx=0;exitDy=0;" parent="1" source="OIH57Cj0RyYtuAbzgee4-78" target="OIH57Cj0RyYtuAbzgee4-22" edge="1">
          <mxGeometry relative="1" as="geometry">
            <Array as="points">
              <mxPoint x="405" y="900" />
              <mxPoint x="200" y="900" />
              <mxPoint x="200" y="500" />
              <mxPoint x="305" y="500" />
            </Array>
          </mxGeometry>
        </mxCell>
        <mxCell id="OIH57Cj0RyYtuAbzgee4-78" value="" style="swimlane;startSize=0;" parent="1" vertex="1">
          <mxGeometry x="220" y="530" width="370.12" height="350" as="geometry" />
        </mxCell>
        <mxCell id="OIH57Cj0RyYtuAbzgee4-81" value="" style="group" parent="OIH57Cj0RyYtuAbzgee4-78" vertex="1" connectable="0">
          <mxGeometry x="250" y="10" width="100" height="113.78" as="geometry" />
        </mxCell>
        <mxCell id="OIH57Cj0RyYtuAbzgee4-79" value="" style="sketch=0;points=[[0,0,0],[0.25,0,0],[0.5,0,0],[0.75,0,0],[1,0,0],[0,1,0],[0.25,1,0],[0.5,1,0],[0.75,1,0],[1,1,0],[0,0.25,0],[0,0.5,0],[0,0.75,0],[1,0.25,0],[1,0.5,0],[1,0.75,0]];outlineConnect=0;fontColor=#232F3E;fillColor=#7AA116;strokeColor=#ffffff;dashed=0;verticalLabelPosition=bottom;verticalAlign=top;align=center;html=1;fontSize=12;fontStyle=0;aspect=fixed;shape=mxgraph.aws4.resourceIcon;resIcon=mxgraph.aws4.s3;" parent="OIH57Cj0RyYtuAbzgee4-81" vertex="1">
          <mxGeometry x="7.28" y="-1.23" width="85.45" height="85.45" as="geometry" />
        </mxCell>
        <mxCell id="OIH57Cj0RyYtuAbzgee4-80" value="&lt;span style=&quot;font-size: 14px;&quot;&gt;S3&lt;/span&gt;" style="text;html=1;align=center;verticalAlign=middle;whiteSpace=wrap;rounded=0;fontFamily=Ubuntu;fontSource=https%3A%2F%2Ffonts.googleapis.com%2Fcss%3Ffamily%3DUbuntu;" parent="OIH57Cj0RyYtuAbzgee4-81" vertex="1">
          <mxGeometry y="84.22000000000001" width="100" height="29.559999999999985" as="geometry" />
        </mxCell>
        <mxCell id="OIH57Cj0RyYtuAbzgee4-82" value="&lt;span style=&quot;font-size: 14px;&quot;&gt;/&lt;/span&gt;&lt;span style=&quot;font-size: 14px;&quot;&gt;phpveterans&lt;/span&gt;&lt;span style=&quot;font-size: 14px;&quot;&gt;/&lt;/span&gt;&lt;span style=&quot;font-size: 14px;&quot;&gt;_app&lt;/span&gt;" style="text;html=1;align=center;verticalAlign=middle;whiteSpace=wrap;rounded=0;fontFamily=Ubuntu;fontSource=https%3A%2F%2Ffonts.googleapis.com%2Fcss%3Ffamily%3DUbuntu;" parent="OIH57Cj0RyYtuAbzgee4-78" vertex="1">
          <mxGeometry x="30" y="140" width="140" height="40" as="geometry" />
        </mxCell>
        <mxCell id="OIH57Cj0RyYtuAbzgee4-84" value="&lt;span style=&quot;font-size: 14px;&quot;&gt;/sellweed/favicon.png&lt;/span&gt;" style="text;html=1;align=center;verticalAlign=middle;whiteSpace=wrap;rounded=0;fontFamily=Ubuntu;fontSource=https%3A%2F%2Ffonts.googleapis.com%2Fcss%3Ffamily%3DUbuntu;" parent="OIH57Cj0RyYtuAbzgee4-78" vertex="1">
          <mxGeometry x="10" y="230" width="155" height="40" as="geometry" />
        </mxCell>
        <mxCell id="OIH57Cj0RyYtuAbzgee4-85" value="&lt;span style=&quot;font-size: 14px;&quot;&gt;/&lt;/span&gt;&lt;span style=&quot;font-size: 14px;&quot;&gt;evilcorp/&lt;/span&gt;&lt;span style=&quot;font-size: 14px;&quot;&gt;_app&lt;/span&gt;" style="text;html=1;align=center;verticalAlign=middle;whiteSpace=wrap;rounded=0;fontFamily=Ubuntu;fontSource=https%3A%2F%2Ffonts.googleapis.com%2Fcss%3Ffamily%3DUbuntu;" parent="OIH57Cj0RyYtuAbzgee4-78" vertex="1">
          <mxGeometry x="40" y="30" width="120" height="40" as="geometry" />
        </mxCell>
        <mxCell id="OIH57Cj0RyYtuAbzgee4-86" style="edgeStyle=orthogonalEdgeStyle;rounded=0;orthogonalLoop=1;jettySize=auto;html=1;entryX=1;entryY=0.5;entryDx=0;entryDy=0;exitX=0.5;exitY=1;exitDx=0;exitDy=0;" parent="OIH57Cj0RyYtuAbzgee4-78" source="OIH57Cj0RyYtuAbzgee4-80" target="OIH57Cj0RyYtuAbzgee4-82" edge="1">
          <mxGeometry relative="1" as="geometry" />
        </mxCell>
        <mxCell id="OIH57Cj0RyYtuAbzgee4-87" style="edgeStyle=orthogonalEdgeStyle;rounded=0;orthogonalLoop=1;jettySize=auto;html=1;entryX=1;entryY=0.5;entryDx=0;entryDy=0;exitX=0.5;exitY=1;exitDx=0;exitDy=0;" parent="OIH57Cj0RyYtuAbzgee4-78" source="OIH57Cj0RyYtuAbzgee4-80" target="OIH57Cj0RyYtuAbzgee4-84" edge="1">
          <mxGeometry relative="1" as="geometry" />
        </mxCell>
        <mxCell id="OIH57Cj0RyYtuAbzgee4-88" style="edgeStyle=orthogonalEdgeStyle;rounded=0;orthogonalLoop=1;jettySize=auto;html=1;entryX=1;entryY=0.5;entryDx=0;entryDy=0;" parent="OIH57Cj0RyYtuAbzgee4-78" source="OIH57Cj0RyYtuAbzgee4-80" target="OIH57Cj0RyYtuAbzgee4-85" edge="1">
          <mxGeometry relative="1" as="geometry" />
        </mxCell>
        <mxCell id="OIH57Cj0RyYtuAbzgee4-89" value="&lt;font style=&quot;font-size: 7px;&quot;&gt;(serving static rendered &lt;/font&gt;&lt;span style=&quot;font-size: 7px; background-color: initial;&quot;&gt;client chunks and static files that are loaded by the client router)&amp;nbsp;&lt;/span&gt;" style="text;html=1;align=center;verticalAlign=middle;whiteSpace=wrap;rounded=0;fontFamily=Ubuntu;fontSource=https%3A%2F%2Ffonts.googleapis.com%2Fcss%3Ffamily%3DUbuntu;" parent="OIH57Cj0RyYtuAbzgee4-78" vertex="1">
          <mxGeometry x="-10.120000000000005" y="320" width="380.24" height="20" as="geometry" />
        </mxCell>
        <mxCell id="OIH57Cj0RyYtuAbzgee4-83" style="edgeStyle=orthogonalEdgeStyle;rounded=0;orthogonalLoop=1;jettySize=auto;html=1;entryX=0.5;entryY=0;entryDx=0;entryDy=0;entryPerimeter=0;" parent="1" source="OIH57Cj0RyYtuAbzgee4-50" target="OIH57Cj0RyYtuAbzgee4-79" edge="1">
          <mxGeometry relative="1" as="geometry" />
        </mxCell>
        <mxCell id="Ziek2v9Pr0dAA3M8hF_b-7" value="" style="swimlane;startSize=0;" parent="1" vertex="1">
          <mxGeometry x="760" y="60" width="640" height="420" as="geometry" />
        </mxCell>
        <mxCell id="Ziek2v9Pr0dAA3M8hF_b-8" value="" style="group" parent="Ziek2v9Pr0dAA3M8hF_b-7" vertex="1" connectable="0">
          <mxGeometry width="150" height="150" as="geometry" />
        </mxCell>
        <mxCell id="Ziek2v9Pr0dAA3M8hF_b-9" value="" style="sketch=0;points=[[0,0,0],[0.25,0,0],[0.5,0,0],[0.75,0,0],[1,0,0],[0,1,0],[0.25,1,0],[0.5,1,0],[0.75,1,0],[1,1,0],[0,0.25,0],[0,0.5,0],[0,0.75,0],[1,0.25,0],[1,0.5,0],[1,0.75,0]];outlineConnect=0;fontColor=#232F3E;fillColor=#8C4FFF;strokeColor=#ffffff;dashed=0;verticalLabelPosition=bottom;verticalAlign=top;align=center;html=1;fontSize=12;fontStyle=0;aspect=fixed;shape=mxgraph.aws4.resourceIcon;resIcon=mxgraph.aws4.cloudfront;" parent="Ziek2v9Pr0dAA3M8hF_b-8" vertex="1">
          <mxGeometry x="26" width="98" height="98" as="geometry" />
        </mxCell>
        <mxCell id="Ziek2v9Pr0dAA3M8hF_b-10" value="&lt;font style=&quot;font-size: 14px;&quot; data-font-src=&quot;https://fonts.googleapis.com/css?family=Ubuntu&quot;&gt;Cloudfront Instance 2&lt;/font&gt;&lt;div&gt;&lt;font style=&quot;font-size: 10px;&quot;&gt;(_prerendered.battleshiper.dev)&lt;/font&gt;&lt;/div&gt;" style="text;html=1;align=center;verticalAlign=middle;whiteSpace=wrap;rounded=0;fontFamily=Ubuntu;fontSource=https%3A%2F%2Ffonts.googleapis.com%2Fcss%3Ffamily%3DUbuntu;" parent="Ziek2v9Pr0dAA3M8hF_b-8" vertex="1">
          <mxGeometry y="110" width="150" height="40" as="geometry" />
        </mxCell>
        <mxCell id="Ziek2v9Pr0dAA3M8hF_b-36" style="edgeStyle=orthogonalEdgeStyle;rounded=0;orthogonalLoop=1;jettySize=auto;html=1;entryX=0;entryY=0.5;entryDx=0;entryDy=0;" parent="Ziek2v9Pr0dAA3M8hF_b-7" source="Ziek2v9Pr0dAA3M8hF_b-12" target="Ziek2v9Pr0dAA3M8hF_b-16" edge="1">
          <mxGeometry relative="1" as="geometry" />
        </mxCell>
        <mxCell id="Ziek2v9Pr0dAA3M8hF_b-12" value="" style="swimlane;startSize=0;" parent="Ziek2v9Pr0dAA3M8hF_b-7" vertex="1">
          <mxGeometry x="170" y="24" width="190" height="50" as="geometry" />
        </mxCell>
        <mxCell id="Ziek2v9Pr0dAA3M8hF_b-13" value="&lt;span style=&quot;font-size: 14px;&quot;&gt;Viewer Request&lt;/span&gt;&lt;br&gt;&lt;font style=&quot;font-size: 8px;&quot;&gt;(cache key is generated)&lt;/font&gt;" style="text;html=1;align=center;verticalAlign=middle;whiteSpace=wrap;rounded=0;fontFamily=Ubuntu;fontSource=https%3A%2F%2Ffonts.googleapis.com%2Fcss%3Ffamily%3DUbuntu;" parent="Ziek2v9Pr0dAA3M8hF_b-12" vertex="1">
          <mxGeometry x="20" y="5" width="150" height="40" as="geometry" />
        </mxCell>
        <mxCell id="Ziek2v9Pr0dAA3M8hF_b-20" style="edgeStyle=orthogonalEdgeStyle;rounded=0;orthogonalLoop=1;jettySize=auto;html=1;entryX=0.5;entryY=1;entryDx=0;entryDy=0;" parent="Ziek2v9Pr0dAA3M8hF_b-7" source="Ziek2v9Pr0dAA3M8hF_b-21" target="Ziek2v9Pr0dAA3M8hF_b-24" edge="1">
          <mxGeometry relative="1" as="geometry" />
        </mxCell>
        <mxCell id="Ziek2v9Pr0dAA3M8hF_b-21" value="" style="swimlane;startSize=0;" parent="Ziek2v9Pr0dAA3M8hF_b-7" vertex="1">
          <mxGeometry x="170" y="354" width="190" height="50" as="geometry" />
        </mxCell>
        <mxCell id="Ziek2v9Pr0dAA3M8hF_b-22" value="&lt;span style=&quot;font-size: 14px;&quot;&gt;Origin Response&lt;/span&gt;" style="text;html=1;align=center;verticalAlign=middle;whiteSpace=wrap;rounded=0;fontFamily=Ubuntu;fontSource=https%3A%2F%2Ffonts.googleapis.com%2Fcss%3Ffamily%3DUbuntu;" parent="Ziek2v9Pr0dAA3M8hF_b-21" vertex="1">
          <mxGeometry x="20" y="5" width="150" height="40" as="geometry" />
        </mxCell>
        <mxCell id="Ziek2v9Pr0dAA3M8hF_b-24" value="" style="swimlane;startSize=0;" parent="Ziek2v9Pr0dAA3M8hF_b-7" vertex="1">
          <mxGeometry x="170" y="90" width="190" height="50" as="geometry" />
        </mxCell>
        <mxCell id="Ziek2v9Pr0dAA3M8hF_b-25" value="&lt;span style=&quot;font-size: 14px;&quot;&gt;Viewer Response&lt;/span&gt;&lt;br&gt;&lt;font style=&quot;font-size: 8px;&quot;&gt;(content is cached)&lt;/font&gt;" style="text;html=1;align=center;verticalAlign=middle;whiteSpace=wrap;rounded=0;fontFamily=Ubuntu;fontSource=https%3A%2F%2Ffonts.googleapis.com%2Fcss%3Ffamily%3DUbuntu;" parent="Ziek2v9Pr0dAA3M8hF_b-24" vertex="1">
          <mxGeometry x="20" y="5" width="150" height="40" as="geometry" />
        </mxCell>
        <mxCell id="Ziek2v9Pr0dAA3M8hF_b-26" style="edgeStyle=orthogonalEdgeStyle;rounded=0;orthogonalLoop=1;jettySize=auto;html=1;entryX=0;entryY=0.5;entryDx=0;entryDy=0;" parent="Ziek2v9Pr0dAA3M8hF_b-7" source="Ziek2v9Pr0dAA3M8hF_b-9" target="Ziek2v9Pr0dAA3M8hF_b-12" edge="1">
          <mxGeometry relative="1" as="geometry" />
        </mxCell>
        <mxCell id="Ziek2v9Pr0dAA3M8hF_b-27" value="" style="swimlane;startSize=0;" parent="Ziek2v9Pr0dAA3M8hF_b-7" vertex="1">
          <mxGeometry x="410" y="90" width="210" height="130" as="geometry" />
        </mxCell>
        <mxCell id="Ziek2v9Pr0dAA3M8hF_b-28" value="&lt;span style=&quot;font-size: 14px;&quot;&gt;Cache Behavior&lt;/span&gt;" style="text;html=1;align=center;verticalAlign=middle;whiteSpace=wrap;rounded=0;fontFamily=Ubuntu;fontSource=https%3A%2F%2Ffonts.googleapis.com%2Fcss%3Ffamily%3DUbuntu;" parent="Ziek2v9Pr0dAA3M8hF_b-27" vertex="1">
          <mxGeometry x="30" width="150" height="40" as="geometry" />
        </mxCell>
        <mxCell id="Ziek2v9Pr0dAA3M8hF_b-30" value="" style="group" parent="Ziek2v9Pr0dAA3M8hF_b-27" vertex="1" connectable="0">
          <mxGeometry x="65" y="40" width="80" height="80" as="geometry" />
        </mxCell>
        <mxCell id="Ziek2v9Pr0dAA3M8hF_b-31" value="" style="group" parent="Ziek2v9Pr0dAA3M8hF_b-30" vertex="1" connectable="0">
          <mxGeometry width="80" height="50" as="geometry" />
        </mxCell>
        <mxCell id="Ziek2v9Pr0dAA3M8hF_b-32" value="" style="swimlane;startSize=0;" parent="Ziek2v9Pr0dAA3M8hF_b-31" vertex="1">
          <mxGeometry width="80" height="50" as="geometry" />
        </mxCell>
        <mxCell id="Ziek2v9Pr0dAA3M8hF_b-33" value="&lt;font style=&quot;font-size: 15px;&quot;&gt;/*&lt;/font&gt;" style="text;html=1;align=center;verticalAlign=middle;whiteSpace=wrap;rounded=0;fontFamily=Ubuntu;fontSource=https%3A%2F%2Ffonts.googleapis.com%2Fcss%3Ffamily%3DUbuntu;fontSize=15;" parent="Ziek2v9Pr0dAA3M8hF_b-31" vertex="1">
          <mxGeometry x="8.88888888888889" y="5" width="62.22222222222222" height="40" as="geometry" />
        </mxCell>
        <mxCell id="Ziek2v9Pr0dAA3M8hF_b-34" value="&lt;font style=&quot;font-size: 8px;&quot;&gt;cache content&lt;/font&gt;" style="text;html=1;align=center;verticalAlign=middle;whiteSpace=wrap;rounded=0;fontFamily=Ubuntu;fontSource=https%3A%2F%2Ffonts.googleapis.com%2Fcss%3Ffamily%3DUbuntu;fontSize=15;" parent="Ziek2v9Pr0dAA3M8hF_b-30" vertex="1">
          <mxGeometry x="8.89" y="60" width="62.22" height="20" as="geometry" />
        </mxCell>
        <mxCell id="Ziek2v9Pr0dAA3M8hF_b-16" value="" style="swimlane;startSize=0;" parent="Ziek2v9Pr0dAA3M8hF_b-7" vertex="1">
          <mxGeometry x="411.1111111111111" y="24" width="208.89" height="50" as="geometry" />
        </mxCell>
        <mxCell id="Ziek2v9Pr0dAA3M8hF_b-17" value="&lt;span style=&quot;font-size: 14px;&quot;&gt;Origin Request&lt;/span&gt;" style="text;html=1;align=center;verticalAlign=middle;whiteSpace=wrap;rounded=0;fontFamily=Ubuntu;fontSource=https%3A%2F%2Ffonts.googleapis.com%2Fcss%3Ffamily%3DUbuntu;" parent="Ziek2v9Pr0dAA3M8hF_b-16" vertex="1">
          <mxGeometry x="37.782222222222224" y="5" width="133.33333333333331" height="40" as="geometry" />
        </mxCell>
        <mxCell id="Ziek2v9Pr0dAA3M8hF_b-37" value="" style="group" parent="Ziek2v9Pr0dAA3M8hF_b-7" vertex="1" connectable="0">
          <mxGeometry x="465" y="280" width="100" height="113.78" as="geometry" />
        </mxCell>
        <mxCell id="Ziek2v9Pr0dAA3M8hF_b-38" value="" style="sketch=0;points=[[0,0,0],[0.25,0,0],[0.5,0,0],[0.75,0,0],[1,0,0],[0,1,0],[0.25,1,0],[0.5,1,0],[0.75,1,0],[1,1,0],[0,0.25,0],[0,0.5,0],[0,0.75,0],[1,0.25,0],[1,0.5,0],[1,0.75,0]];outlineConnect=0;fontColor=#232F3E;fillColor=#7AA116;strokeColor=#ffffff;dashed=0;verticalLabelPosition=bottom;verticalAlign=top;align=center;html=1;fontSize=12;fontStyle=0;aspect=fixed;shape=mxgraph.aws4.resourceIcon;resIcon=mxgraph.aws4.s3;" parent="Ziek2v9Pr0dAA3M8hF_b-37" vertex="1">
          <mxGeometry x="7.28" y="-1.23" width="85.45" height="85.45" as="geometry" />
        </mxCell>
        <mxCell id="Ziek2v9Pr0dAA3M8hF_b-39" value="&lt;span style=&quot;font-size: 14px;&quot;&gt;S3&lt;/span&gt;" style="text;html=1;align=center;verticalAlign=middle;whiteSpace=wrap;rounded=0;fontFamily=Ubuntu;fontSource=https%3A%2F%2Ffonts.googleapis.com%2Fcss%3Ffamily%3DUbuntu;" parent="Ziek2v9Pr0dAA3M8hF_b-37" vertex="1">
          <mxGeometry y="84.22000000000001" width="100" height="29.559999999999985" as="geometry" />
        </mxCell>
        <mxCell id="Ziek2v9Pr0dAA3M8hF_b-40" style="edgeStyle=orthogonalEdgeStyle;rounded=0;orthogonalLoop=1;jettySize=auto;html=1;entryX=0.5;entryY=0;entryDx=0;entryDy=0;entryPerimeter=0;" parent="Ziek2v9Pr0dAA3M8hF_b-7" source="Ziek2v9Pr0dAA3M8hF_b-27" target="Ziek2v9Pr0dAA3M8hF_b-38" edge="1">
          <mxGeometry relative="1" as="geometry" />
        </mxCell>
        <mxCell id="Ziek2v9Pr0dAA3M8hF_b-41" style="edgeStyle=orthogonalEdgeStyle;rounded=0;orthogonalLoop=1;jettySize=auto;html=1;entryX=1;entryY=0.5;entryDx=0;entryDy=0;" parent="Ziek2v9Pr0dAA3M8hF_b-7" source="Ziek2v9Pr0dAA3M8hF_b-39" target="Ziek2v9Pr0dAA3M8hF_b-21" edge="1">
          <mxGeometry relative="1" as="geometry" />
        </mxCell>
        <mxCell id="Ziek2v9Pr0dAA3M8hF_b-42" style="edgeStyle=orthogonalEdgeStyle;rounded=0;orthogonalLoop=1;jettySize=auto;html=1;entryX=1;entryY=0.75;entryDx=0;entryDy=0;entryPerimeter=0;" parent="Ziek2v9Pr0dAA3M8hF_b-7" source="Ziek2v9Pr0dAA3M8hF_b-24" target="Ziek2v9Pr0dAA3M8hF_b-9" edge="1">
          <mxGeometry relative="1" as="geometry" />
        </mxCell>
        <mxCell id="Ziek2v9Pr0dAA3M8hF_b-43" style="edgeStyle=orthogonalEdgeStyle;rounded=0;orthogonalLoop=1;jettySize=auto;html=1;entryX=0.25;entryY=1;entryDx=0;entryDy=0;exitX=1;exitY=0.25;exitDx=0;exitDy=0;" parent="1" source="OIH57Cj0RyYtuAbzgee4-58" target="Ziek2v9Pr0dAA3M8hF_b-10" edge="1">
          <mxGeometry relative="1" as="geometry" />
        </mxCell>
        <mxCell id="Ziek2v9Pr0dAA3M8hF_b-47" value="&lt;span style=&quot;font-family: Ubuntu; font-weight: bold; font-size: 13px;&quot;&gt;&amp;nbsp; /&amp;lt;project&amp;gt;/&amp;lt;custom&amp;gt;&amp;nbsp;&amp;nbsp;&lt;/span&gt;&lt;font style=&quot;font-family: Ubuntu; font-size: 13px;&quot;&gt;(prerendered pages)&amp;nbsp;&amp;nbsp;&lt;/font&gt;" style="edgeLabel;html=1;align=center;verticalAlign=middle;resizable=0;points=[];labelBackgroundColor=default;" parent="Ziek2v9Pr0dAA3M8hF_b-43" vertex="1" connectable="0">
          <mxGeometry x="-0.4748" y="1" relative="1" as="geometry">
            <mxPoint x="63" y="-12" as="offset" />
          </mxGeometry>
        </mxCell>
        <mxCell id="-ez2lOt0YhEfZBIx9Kx3-5" style="edgeStyle=orthogonalEdgeStyle;rounded=0;orthogonalLoop=1;jettySize=auto;html=1;entryX=0.5;entryY=0;entryDx=0;entryDy=0;entryPerimeter=0;" edge="1" parent="1" source="-ez2lOt0YhEfZBIx9Kx3-4" target="OIH57Cj0RyYtuAbzgee4-79">
          <mxGeometry relative="1" as="geometry" />
        </mxCell>
      </root>
    </mxGraphModel>
  </diagram>
</mxfile>
